HIERARCHY
ROOT Hips
{
	OFFSET 0.000000 89.005402 0.000000
	CHANNELS 6 Xposition Yposition Zposition Xrotation Yrotation Zrotation
	JOINT Spine
	{
		OFFSET 0.116900 10.681000 0.373400
		CHANNELS 3 Xrotation Yrotation Zrotation
		JOINT Spine1
		{
			OFFSET 0.000000 13.840401 0.053500
			CHANNELS 3 Xrotation Yrotation Zrotation
			JOINT Spine2
			{
				OFFSET 0.000000 14.712700 -0.366200
				CHANNELS 3 Xrotation Yrotation Zrotation
				JOINT Neck
				{
					OFFSET 0.000000 35.415497 -3.314200
					CHANNELS 3 Xrotation Yrotation Zrotation
					JOINT Head
					{
						OFFSET 0.000000 16.899200 1.218300
						CHANNELS 3 Xrotation Yrotation Zrotation
						JOINT HeadTop_End
						{
							OFFSET 0.000000 22.206207 2.192500
							CHANNELS 3 Xrotation Yrotation Zrotation
							End Site
							{
								OFFSET 0.000000 22.314178 0.000000
							}
						}
					}
				}
				JOINT LeftShoulder
				{
					OFFSET 12.896400 26.716293 -4.548400
					CHANNELS 3 Xrotation Yrotation Zrotation
					JOINT LeftArm
					{
						OFFSET 19.027000 -4.857010 -1.718400
						CHANNELS 3 Xrotation Yrotation Zrotation
						JOINT LeftForeArm
						{
							OFFSET 24.179897 0.000000 0.000000
							CHANNELS 3 Xrotation Yrotation Zrotation
							JOINT LeftHand
							{
								OFFSET 27.156403 0.000000 0.000000
								CHANNELS 3 Xrotation Yrotation Zrotation
								JOINT LeftHandIndex1
								{
									OFFSET 16.441200 0.000000 0.000000
									CHANNELS 3 Xrotation Yrotation Zrotation
									JOINT LeftHandIndex2
									{
										OFFSET 4.821899 0.000000 0.000000
										CHANNELS 3 Xrotation Yrotation Zrotation
										JOINT LeftHandIndex3
										{
											OFFSET 6.386497 0.000000 0.000000
											CHANNELS 3 Xrotation Yrotation Zrotation
											JOINT LeftHandIndex4
											{
												OFFSET 5.188988 0.000000 0.000000
												CHANNELS 3 Xrotation Yrotation Zrotation
												End Site
												{
													OFFSET -0.178703 5.185913 0.000177
												}
											}
										}
									}
								}
								JOINT LeftHandThumb1
								{
									OFFSET 6.534897 -5.032593 5.900300
									CHANNELS 3 Xrotation Yrotation Zrotation
									JOINT LeftHandThumb2
									{
										OFFSET 3.818176 -2.204422 2.204423
										CHANNELS 3 Xrotation Yrotation Zrotation
										JOINT LeftHandThumb3
										{
											OFFSET 3.252098 -1.877594 1.877601
											CHANNELS 3 Xrotation Yrotation Zrotation
											JOINT LeftHandThumb4
											{
												OFFSET 5.251778 -3.032120 3.032117
												CHANNELS 3 Xrotation Yrotation Zrotation
												End Site
												{
													OFFSET 0.000023 6.780014 0.000000
												}
											}
										}
									}
								}
							}
						}
					}
				}
				JOINT RightShoulder
				{
					OFFSET -12.896300 26.716293 -4.548400
					CHANNELS 3 Xrotation Yrotation Zrotation
					JOINT RightArm
					{
						OFFSET -19.027000 -4.857010 -1.718400
						CHANNELS 3 Xrotation Yrotation Zrotation
						JOINT RightForeArm
						{
							OFFSET -24.179897 0.000000 0.000000
							CHANNELS 3 Xrotation Yrotation Zrotation
							JOINT RightHand
							{
								OFFSET -27.156403 0.000000 0.000000
								CHANNELS 3 Xrotation Yrotation Zrotation
								JOINT RightHandThumb1
								{
									OFFSET -6.591202 -4.852203 5.988100
									CHANNELS 3 Xrotation Yrotation Zrotation
									JOINT RightHandThumb2
									{
										OFFSET -3.818176 -2.204422 2.204423
										CHANNELS 3 Xrotation Yrotation Zrotation
										JOINT RightHandThumb3
										{
											OFFSET -3.252098 -1.877594 1.877601
											CHANNELS 3 Xrotation Yrotation Zrotation
											JOINT RightHandThumb4
											{
												OFFSET -5.251778 -3.032120 3.032117
												CHANNELS 3 Xrotation Yrotation Zrotation
												End Site
												{
													OFFSET -0.000023 6.780014 0.000000
												}
											}
										}
									}
								}
								JOINT RightHandIndex1
								{
									OFFSET -16.029404 0.000000 0.000000
									CHANNELS 3 Xrotation Yrotation Zrotation
									JOINT RightHandIndex2
									{
										OFFSET -5.213303 0.000000 0.000000
										CHANNELS 3 Xrotation Yrotation Zrotation
										JOINT RightHandIndex3
										{
											OFFSET -6.386528 0.000000 0.000000
											CHANNELS 3 Xrotation Yrotation Zrotation
											JOINT RightHandIndex4
											{
												OFFSET -5.189026 0.000000 0.000000
												CHANNELS 3 Xrotation Yrotation Zrotation
												End Site
												{
													OFFSET 0.236702 5.183624 0.001972
												}
											}
										}
									}
								}
							}
						}
					}
				}
			}
		}
	}
	JOINT LeftUpLeg
	{
		OFFSET 14.073000 -7.904099 -1.463000
		CHANNELS 3 Xrotation Yrotation Zrotation
		JOINT LeftLeg
		{
			OFFSET -0.109806 -34.073280 4.093200
			CHANNELS 3 Xrotation Yrotation Zrotation
			JOINT LeftFoot
			{
				OFFSET 0.109806 -29.899420 -6.319000
				CHANNELS 3 Xrotation Yrotation Zrotation
				JOINT LeftToeBase
				{
					OFFSET 1.551100 -14.988700 20.535801
					CHANNELS 3 Xrotation Yrotation Zrotation
					JOINT LeftToe_End
					{
						OFFSET 0.221200 0.570800 13.248301
						CHANNELS 3 Xrotation Yrotation Zrotation
						End Site
						{
							OFFSET 0.000000 13.262435 0.000000
						}
					}
				}
			}
		}
	}
	JOINT RightUpLeg
	{
		OFFSET -13.839300 -7.904099 -1.463000
		CHANNELS 3 Xrotation Yrotation Zrotation
		JOINT RightLeg
		{
			OFFSET 0.109694 -34.073219 4.093300
			CHANNELS 3 Xrotation Yrotation Zrotation
			JOINT RightFoot
			{
				OFFSET -0.109694 -29.899384 -6.319200
				CHANNELS 3 Xrotation Yrotation Zrotation
				JOINT RightToeBase
				{
					OFFSET -1.551100 -14.988700 20.535801
					CHANNELS 3 Xrotation Yrotation Zrotation
					JOINT RightToe_End
					{
						OFFSET -0.221200 0.570900 13.248299
						CHANNELS 3 Xrotation Yrotation Zrotation
						End Site
						{
							OFFSET 0.000000 13.262440 0.000000
						}
					}
				}
			}
		}
	}
}
MOTION
Frames: 5
Frame Time: 0.033333
0.883136 81.933578 0.888941 0.561476 39.670695 -1.170171 1.151689 -1.529469 1.800257 2.477312 -2.384677 0.810755 2.504185 -2.364738 0.781998 -3.663325 -4.926257 -2.382795 -6.587745 -25.833063 -8.581205 -0.000000 -0.000000 0.000000 1.569981 -4.629764 -11.730569 -0.681691 3.034607 -62.425101 0.000008 -30.687015 0.000026 37.652876 -4.410528 -31.474359 7.416723 6.860426 -94.474227 8.602597 6.663410 -104.520302 2.651913 5.433015 -52.009251 -0.000001 -0.000001 -0.000001 -3.995076 24.990366 -19.240657 60.097195 77.419901 -26.297299 14.359248 37.958039 3.080537 -0.000001 0.000002 -0.000000 -0.205531 -8.941348 11.705378 8.390998 28.271152 48.501843 -0.000014 18.825613 -0.000001 -66.463068 -9.207947 3.819706 17.569752 -8.831182 28.061740 68.007203 -96.575241 53.443331 -1.835660 -41.861341 -10.266491 0.000004 -0.000002 0.000001 8.997100 -6.640699 107.189758 7.442403 -6.930726 94.088403 2.199689 -5.078233 46.818563 0.000003 -0.000000 -0.000000 2.490374 23.483290 25.423561 11.771968 4.582391 0.014566 -8.878530 4.380751 -29.456232 -0.449969 -0.003952 0.499239 -0.000000 0.000000 0.000000 -15.851742 -14.739613 -26.283997 16.492252 -1.581585 0.200702 1.154854 -1.631196 22.332651 -0.000004 0.000004 0.000005 -0.000000 -0.000001 0.000000 
0.892297 81.927254 0.920662 0.682256 39.641516 -1.329100 1.091297 -1.529644 1.867223 2.361312 -2.378787 0.875094 2.390390 -2.358777 0.847901 -3.674508 -4.892144 -2.435561 -6.660669 -25.706525 -8.705555 0.000000 0.000000 0.000001 1.565722 -4.474220 -11.777142 -0.603569 3.346510 -62.539985 -0.000007 -30.884592 -0.000014 37.998265 -4.402667 -31.826434 7.416721 6.860427 -94.474227 8.602597 6.663407 -104.520302 2.651913 5.433015 -52.009251 -0.000001 0.000002 0.000000 -3.995080 24.990368 -19.240655 60.097202 77.419901 -26.297319 14.359247 37.958045 3.080535 0.000001 -0.000000 0.000000 -0.210285 -8.982068 11.744031 8.630721 28.479654 48.603442 0.000003 18.640377 -0.000017 -66.468211 -9.209563 3.819406 17.569752 -8.831182 28.061743 68.007176 -96.575241 53.443307 -1.835660 -41.861341 -10.266500 0.000002 0.000000 -0.000002 8.997102 -6.640700 107.189758 7.442400 -6.930724 94.088403 2.199691 -5.078229 46.818563 0.000005 0.000000 0.000000 2.328101 23.520516 25.547307 11.869464 4.622284 0.012493 -8.913506 4.396237 -29.452629 -0.423835 -0.003695 0.481230 -0.000000 -0.000002 -0.000000 -15.919004 -14.730170 -26.193425 16.473714 -1.561910 0.196691 1.260655 -1.612830 22.411743 -0.042129 -0.000009 0.000007 -0.000000 0.000001 0.000000 
0.806780 81.769646 1.163995 1.642810 39.636814 -2.058045 0.998746 -1.459919 1.815345 2.185925 -2.255557 0.847898 2.211718 -2.237943 0.818631 -3.501231 -5.014033 -2.297217 -6.574243 -26.159891 -8.498160 0.000000 -0.000000 0.000000 1.569559 -4.630305 -11.729828 -0.405333 3.045989 -62.400151 -0.000009 -31.440590 -0.000031 37.857027 -4.704659 -31.786153 7.416723 6.860428 -94.474227 8.602597 6.663410 -104.520302 2.651913 5.433014 -52.009254 0.000000 -0.000000 -0.000001 -3.995080 24.990366 -19.240657 60.097202 77.419901 -26.297314 14.359250 37.958042 3.080535 -0.000001 -0.000003 -0.000003 -0.186427 -8.806107 11.540291 7.621030 27.622514 48.150921 -0.000003 19.570211 0.000012 -66.486270 -9.227919 3.751173 17.569753 -8.831181 28.061742 68.007176 -96.575234 53.443314 -1.835658 -41.861345 -10.266496 -0.000002 0.000002 -0.000002 8.997103 -6.640700 107.189758 7.442400 -6.930725 94.088403 2.199689 -5.078231 46.818563 0.000001 -0.000000 -0.000000 1.294068 23.210607 25.998779 12.458321 4.792913 0.001250 -9.017207 4.470811 -29.652044 -0.465244 -0.003894 0.496242 -0.000000 -0.000001 -0.000000 -16.827863 -14.164545 -25.990111 17.571281 -1.909794 0.181846 0.702231 -1.748025 22.660794 -0.156591 -0.000002 0.000009 0.000000 0.000000 -0.000000 
0.489104 81.470718 1.491839 1.676606 41.289545 -2.195888 0.935168 -1.314020 1.577324 2.075153 -1.982100 0.655552 2.089111 -1.969414 0.617141 -3.065000 -5.323836 -1.925008 -6.179626 -27.335633 -7.835784 0.000000 -0.000000 0.000000 1.581796 -5.080232 -11.605721 -0.494474 1.970112 -61.831927 0.000005 -32.333818 -0.000010 37.414663 -5.447389 -31.744892 7.416721 6.860428 -94.474227 8.602595 6.663407 -104.520302 2.651914 5.433016 -52.009254 0.000001 -0.000001 0.000000 -3.995080 24.990368 -19.240655 60.097202 77.419901 -26.297316 14.359248 37.958042 3.080537 -0.000003 0.000001 0.000000 -0.123628 -8.308047 10.952251 4.837762 25.349127 46.855245 0.000001 22.088316 -0.000003 -66.516255 -9.257628 3.612186 17.569753 -8.831181 28.061740 68.007176 -96.575241 53.443304 -1.835655 -41.861341 -10.266492 0.000002 0.000001 0.000002 8.997102 -6.640700 107.189758 7.442400 -6.930725 94.088410 2.199690 -5.078230 46.818560 -0.000000 -0.000000 -0.000000 -0.815134 22.429754 27.491650 14.368206 3.248989 -0.342252 -9.460853 4.442945 -29.155154 -0.312616 -0.002155 0.373438 -0.000000 0.000000 0.000000 -17.010192 -14.206642 -26.057805 20.173049 -2.102654 0.299671 -1.013549 -2.531676 22.515536 -0.332838 -0.000026 -0.000001 -0.000000 0.000000 0.000000 
0.050178 81.154518 1.848853 1.111269 42.922903 -1.803421 0.952296 -1.119652 1.216440 2.124951 -1.607279 0.305223 2.120326 -1.600451 0.251346 -2.445758 -5.755625 -1.376120 -5.508543 -28.975476 -6.821589 -0.000000 -0.000000 -0.000000 1.598034 -5.714692 -11.436770 -1.009979 0.317771 -60.918088 -0.000020 -33.312680 -0.000021 36.876792 -6.472305 -31.944679 7.416723 6.860429 -94.474227 8.602596 6.663405 -104.520302 2.651913 5.433017 -52.009254 0.000001 0.000001 -0.000001 -3.995078 24.990370 -19.240657 60.097209 77.419901 -26.297319 14.359248 37.958042 3.080534 -0.000001 -0.000000 -0.000000 -0.034250 -7.588590 10.112566 0.717623 22.248486 44.892054 0.000004 25.742606 -0.000000 -66.550057 -9.285470 3.443495 17.569753 -8.831183 28.061738 68.007190 -96.575241 53.443310 -1.835654 -41.861352 -10.266494 -0.000000 0.000001 0.000002 8.997101 -6.640698 107.189758 7.442402 -6.930724 94.088403 2.199691 -5.078232 46.818560 -0.000002 -0.000000 -0.000001 -2.342532 21.750929 28.808768 15.938129 1.766683 -0.627947 -9.650461 4.342571 -28.701070 -0.135769 -0.000914 0.245278 0.000000 -0.000001 0.000000 -16.986472 -14.503186 -26.275593 22.921174 -1.920515 0.403755 -2.868862 -3.350188 22.403381 -0.578316 0.000041 -0.059342 0.000000 0.000001 0.000000 
